<svg xmlns="http://www.w3.org/2000/svg" width="21.969" height="21.969" viewBox="0 0 21.969 21.969">
  <defs>
    <style>
      .cls-1 {
        fill: #3a3738;
        fill-rule: evenodd;
      }
    </style>
  </defs>
  <path id="Forma_1" data-name="Forma 1" class="cls-1" d="M21.361,18.447l-5.039-5.039a9.68,9.68,0,0,1-2.912,2.911l5.039,5.04A2.059,2.059,0,0,0,21.361,18.447ZM16.473,8.234a8.237,8.237,0,1,0-8.237,8.238A8.237,8.237,0,0,0,16.473,8.234ZM8.236,14.412a6.177,6.177,0,1,1,6.178-6.178A6.184,6.184,0,0,1,8.236,14.412Zm-4.8-6.178H4.8A3.436,3.436,0,0,1,8.236,4.8V3.429A4.81,4.81,0,0,0,3.432,8.234Z"/>
</svg>
